<svg width="88" height="88" viewBox="0 0 88 88" fill="none" xmlns="http://www.w3.org/2000/svg">
<g filter="url(#filter0_d_1_765)">
<rect x="14" y="14" width="60" height="60" rx="30" fill="white" shape-rendering="crispEdges"/>
<path d="M39.0282 35.0591C38.7646 35.3228 38.6165 35.6805 38.6165 36.0533C38.6165 36.4262 38.7646 36.7839 39.0282 37.0476L45.9891 44.0085L39.0282 50.9694C38.772 51.2347 38.6303 51.5899 38.6335 51.9586C38.6367 52.3273 38.7846 52.68 39.0453 52.9408C39.306 53.2015 39.6588 53.3494 40.0275 53.3526C40.3962 53.3558 40.7514 53.214 41.0166 52.9579L48.9718 45.0027C49.2354 44.739 49.3835 44.3814 49.3835 44.0085C49.3835 43.6356 49.2354 43.278 48.9718 43.0143L41.0166 35.0591C40.7529 34.7955 40.3953 34.6474 40.0224 34.6474C39.6495 34.6474 39.2919 34.7955 39.0282 35.0591Z" fill="#BD1F17"/>
</g>
<defs>
<filter id="filter0_d_1_765" x="0.363637" y="0.363637" width="87.2727" height="87.2727" filterUnits="userSpaceOnUse" color-interpolation-filters="sRGB">
<feFlood flood-opacity="0" result="BackgroundImageFix"/>
<feColorMatrix in="SourceAlpha" type="matrix" values="0 0 0 0 0 0 0 0 0 0 0 0 0 0 0 0 0 0 127 0" result="hardAlpha"/>
<feOffset/>
<feGaussianBlur stdDeviation="6.81818"/>
<feComposite in2="hardAlpha" operator="out"/>
<feColorMatrix type="matrix" values="0 0 0 0 0 0 0 0 0 0 0 0 0 0 0 0 0 0 0.1 0"/>
<feBlend mode="normal" in2="BackgroundImageFix" result="effect1_dropShadow_1_765"/>
<feBlend mode="normal" in="SourceGraphic" in2="effect1_dropShadow_1_765" result="shape"/>
</filter>
</defs>
</svg>
