<svg width="88" height="88" viewBox="0 0 88 88" fill="none" xmlns="http://www.w3.org/2000/svg">
<g filter="url(#filter0_d_1_763)">
<rect x="74" y="74" width="60" height="60" rx="30" transform="rotate(-180 74 74)" fill="white" shape-rendering="crispEdges"/>
<path d="M48.9718 52.9409C49.2354 52.6772 49.3835 52.3196 49.3835 51.9467C49.3835 51.5738 49.2354 51.2162 48.9718 50.9525L42.0109 43.9916L48.9718 37.0306C49.228 36.7654 49.3697 36.4102 49.3665 36.0415C49.3633 35.6727 49.2154 35.32 48.9547 35.0593C48.694 34.7986 48.3413 34.6507 47.9725 34.6475C47.6038 34.6443 47.2486 34.786 46.9834 35.0422L39.0282 42.9973C38.7646 43.261 38.6165 43.6187 38.6165 43.9916C38.6165 44.3644 38.7646 44.7221 39.0282 44.9858L46.9834 52.9409C47.2471 53.2046 47.6047 53.3527 47.9776 53.3527C48.3505 53.3527 48.7081 53.2046 48.9718 52.9409Z" fill="#0A1425"/>
</g>
<defs>
<filter id="filter0_d_1_763" x="0.363637" y="0.363637" width="87.2727" height="87.2727" filterUnits="userSpaceOnUse" color-interpolation-filters="sRGB">
<feFlood flood-opacity="0" result="BackgroundImageFix"/>
<feColorMatrix in="SourceAlpha" type="matrix" values="0 0 0 0 0 0 0 0 0 0 0 0 0 0 0 0 0 0 127 0" result="hardAlpha"/>
<feOffset/>
<feGaussianBlur stdDeviation="6.81818"/>
<feComposite in2="hardAlpha" operator="out"/>
<feColorMatrix type="matrix" values="0 0 0 0 0 0 0 0 0 0 0 0 0 0 0 0 0 0 0.1 0"/>
<feBlend mode="normal" in2="BackgroundImageFix" result="effect1_dropShadow_1_763"/>
<feBlend mode="normal" in="SourceGraphic" in2="effect1_dropShadow_1_763" result="shape"/>
</filter>
</defs>
</svg>
